<svg width="863" height="809" viewBox="0 0 863 809" fill="none" xmlns="http://www.w3.org/2000/svg">
<path d="M375.952 515.81C453.719 560.334 473.161 701.328 473.161 766.259C491.677 724.517 525.932 602.076 514.823 446.241C500.935 251.448 375.952 140.138 1 1C98.2097 84.4828 56.5484 321.017 84.3226 515.81C106.542 671.645 297.258 775.534 389.839 808C399.097 784.81 417.613 727.3 417.613 682.776C417.613 627.121 389.839 585.379 375.952 515.81Z" stroke="#F0990B" stroke-linecap="round"/>
<path d="M639.806 571.466C606.477 593.728 551.855 673.5 528.71 710.604C506.49 766.259 537.968 780.172 556.484 780.172C584.258 789.448 650.916 805.217 695.355 794.086C750.903 780.172 820.339 710.604 862 348.845C834.226 418.414 681.468 543.638 639.806 571.466Z" stroke="#F0990B" stroke-linecap="round"/>
</svg>
