<svg width="72" height="72" viewBox="0 0 72 72" fill="none" xmlns="http://www.w3.org/2000/svg">
<rect width="72" height="72" rx="8" fill="#186948"/>
<path d="M47.3592 18.0743C47.3592 17.7927 47.2474 17.5227 47.0483 17.3235C46.8491 17.1244 46.5791 17.0126 46.2975 17.0126H40.9885C38.3152 16.8794 35.6979 17.8097 33.7084 19.6003C31.7188 21.3909 30.5189 23.8961 30.3707 26.5686V32.3022H25.0618C24.7802 32.3022 24.5101 32.4141 24.311 32.6132C24.1119 32.8124 24 33.0824 24 33.364V38.8853C24 39.1669 24.1119 39.437 24.311 39.6361C24.5101 39.8352 24.7802 39.9471 25.0618 39.9471H30.3707V54.175C30.3707 54.4566 30.4826 54.7267 30.6817 54.9258C30.8808 55.1249 31.1509 55.2368 31.4325 55.2368H37.8032C38.0848 55.2368 38.3549 55.1249 38.554 54.9258C38.7531 54.7267 38.865 54.4566 38.865 54.175V39.9471H44.4287C44.6648 39.9505 44.8954 39.8751 45.0838 39.7328C45.2723 39.5905 45.4079 39.3894 45.4693 39.1614L46.9982 33.6401C47.0405 33.4832 47.0462 33.3187 47.0148 33.1593C46.9835 32.9999 46.916 32.8498 46.8176 32.7205C46.7191 32.5913 46.5923 32.4864 46.4469 32.4139C46.3015 32.3413 46.1414 32.3032 45.9789 32.3022H38.865V26.5686C38.9178 26.043 39.1646 25.5559 39.5573 25.2025C39.95 24.8491 40.4603 24.6548 40.9885 24.6574H46.2975C46.5791 24.6574 46.8491 24.5455 47.0483 24.3464C47.2474 24.1473 47.3592 23.8772 47.3592 23.5956V18.0743Z" fill="#579F56"/>
</svg>
