<svg width="38" height="33" viewBox="0 0 38 33" fill="none" xmlns="http://www.w3.org/2000/svg">
<path d="M19.497 0C19.0832 0 18.7127 0.184682 18.4632 0.476097L18.3265 0.574668C14.233 -0.62911 9.58876 0.301918 6.34706 3.36769C3.47261 6.08612 2.37295 9.84742 3.04807 13.3638L3.00625 13.4028L1.17995 15.1299C-0.393316 16.6178 -0.393316 19.0302 1.17995 20.5181C2.11274 21.4002 3.38916 21.7594 4.60173 21.5954C4.77618 22.2299 5.12615 22.8298 5.6516 23.3266C6.36238 23.9989 7.2727 24.3675 8.20229 24.4323C8.27069 25.3116 8.66035 26.1727 9.3713 26.845C10.0823 27.5176 10.9928 27.8859 11.9226 27.9507C11.9909 28.83 12.3806 29.6914 13.0917 30.364C14.5369 31.7306 16.8069 31.8419 18.3864 30.6978L19.2836 31.5461C20.8645 33.0414 23.4278 33.0414 25.0088 31.5461C25.7173 30.8763 26.108 30.0203 26.1817 29.1448C27.1051 29.0765 28.0084 28.7084 28.7152 28.0402C29.4237 27.3701 29.8133 26.5128 29.8838 25.6367C30.7963 25.5627 31.6871 25.1954 32.3857 24.5348C32.9351 24.0152 33.2926 23.3829 33.4585 22.7166C34.6529 22.8608 35.9028 22.4989 36.82 21.6315C38.3933 20.1436 38.3933 17.7312 36.82 16.2434L35.2044 14.7154L35.5124 13.5747C36.2274 10.926 35.8661 8.12189 34.5084 5.7207C32.5065 2.18032 28.6353 0.00914167 24.4652 0.00914167H21.6986C21.574 0.00304728 21.4488 0 21.3229 0H19.497ZM31.3921 14.8484L32.7155 16.1508C32.7985 16.2326 32.8907 16.3023 32.9892 16.3592L34.8434 18.1128C35.3249 18.5682 35.3249 19.3066 34.8434 19.762C34.3618 20.2175 33.581 20.2175 33.0994 19.762L29.9991 16.8299C29.4534 16.3137 28.5683 16.3137 28.0223 16.8299L27.9915 16.859C27.4458 17.3753 27.4458 18.2122 27.9915 18.7285L30.4089 21.0146C30.891 21.4704 30.891 22.2095 30.4089 22.6652C29.9692 23.0812 29.2776 23.1182 28.7952 22.7737C28.2367 22.3751 27.4523 22.4285 26.9598 22.8986C26.4677 23.369 26.4187 24.1112 26.8458 24.6355C27.2178 25.092 27.1813 25.7521 26.7384 26.1708C26.293 26.592 25.5894 26.6243 25.1062 26.2658C24.5512 25.8538 23.7585 25.8979 23.2581 26.3683C22.7577 26.8387 22.7065 27.588 23.1387 28.1156C23.5186 28.5792 23.4824 29.2509 23.032 29.6767C22.5428 30.1395 21.7495 30.1395 21.2603 29.6767L20.3879 28.8518L20.6153 28.6369C22.1886 27.1489 22.1886 24.7364 20.6153 23.2485C19.9043 22.5762 18.9938 22.2078 18.064 22.1431C17.9957 21.2636 17.606 20.4022 16.8949 19.7298C16.1841 19.0576 15.2738 18.689 14.3442 18.6242C14.2758 17.7449 13.8862 16.8838 13.1752 16.2114C12.2424 15.3293 10.966 14.9701 9.75342 15.134C9.57897 14.4998 9.229 13.8997 8.70355 13.4028C7.87907 12.623 6.78611 12.2519 5.70607 12.2894C5.41351 9.776 6.28607 7.16425 8.3238 5.23712C10.2499 3.41555 12.8228 2.5785 15.3433 2.72593L12.3646 4.87402C10.4282 6.27037 10.0673 8.94129 11.5634 10.8016C13.0246 12.6184 15.7142 12.9819 17.6053 11.6182L21.2673 8.97742H25.1843L31.3921 14.8484ZM13.956 7.08076L20.0021 2.72071H21.3229C21.413 2.72071 21.5023 2.72313 21.5909 2.72789C21.6152 2.7292 21.6396 2.72985 21.6639 2.72985H24.4652C27.7075 2.72985 30.6467 4.41832 32.1401 7.05978C33.0991 8.7562 33.3843 10.7085 32.9587 12.5728L26.9381 6.64751C26.6837 6.39707 26.3409 6.25671 25.9839 6.25671H20.8279C20.5423 6.25671 20.2639 6.3466 20.0322 6.51368L16.0139 9.41142C15.2966 9.92874 14.2378 9.78563 13.6835 9.09645C13.1643 8.45082 13.2839 7.5654 13.956 7.08076ZM16.8992 25.1138C17.3811 24.6627 18.1585 24.6641 18.6386 25.1182C19.1201 25.5736 19.1201 26.3117 18.6386 26.7672L16.8123 28.4946C16.3307 28.95 15.55 28.95 15.0684 28.4946C14.5869 28.0391 14.5869 27.3007 15.0684 26.8453L16.8992 25.1138ZM14.9226 23.2441L13.0919 24.9756C12.6104 25.431 11.8296 25.431 11.348 24.9756C10.876 24.5291 10.8667 23.8111 11.3199 23.3538L11.3489 23.3266L13.1752 21.5996L13.2035 21.5725C13.6869 21.144 14.4462 21.1529 14.9182 21.5992C15.3983 22.0533 15.3997 22.7884 14.9226 23.2441ZM11.1976 19.7298L9.3713 21.457L9.343 21.484C8.85958 21.9126 8.10026 21.9036 7.6283 21.4573C7.14676 21.0018 7.14676 20.2635 7.6283 19.808L9.4546 18.0809C9.93614 17.6254 10.7169 17.6254 11.1985 18.0809C11.6705 18.5272 11.6798 19.2455 11.2266 19.7026L11.1976 19.7298ZM6.72682 16.9215L4.90055 18.6486C4.41898 19.104 3.63825 19.104 3.15668 18.6486C2.67511 18.1932 2.67511 17.4548 3.15668 16.9994L4.98296 15.2722C5.46452 14.8168 6.24528 14.8168 6.72682 15.2722C7.20839 15.7276 7.20839 16.466 6.72682 16.9215Z" fill="#579F56"/>
</svg>
