<svg width="54" height="52" viewBox="0 0 54 52" fill="none" xmlns="http://www.w3.org/2000/svg">
<path d="M38.194 0H15.555C12.548 0 11.0445 2.23517e-07 9.8362 0.74675C8.62793 1.4935 7.95553 2.83828 6.61075 5.52785L3.1017 14.3982C2.29098 16.4476 1.58165 18.8631 2.94635 20.5938C3.8619 21.7548 5.2811 22.5 6.87445 22.5C9.63588 22.5 11.8745 20.2615 11.8745 17.5C11.8745 20.2615 14.1131 22.5 16.8745 22.5C19.6359 22.5 21.8745 20.2615 21.8745 17.5C21.8745 20.2615 24.113 22.5 26.8745 22.5C29.636 22.5 31.8745 20.2615 31.8745 17.5C31.8745 20.2615 34.113 22.5 36.8745 22.5C39.636 22.5 41.8745 20.2615 41.8745 17.5C41.8745 20.2615 44.113 22.5 46.8745 22.5C48.4678 22.5 49.887 21.7548 50.8027 20.5938C52.1675 18.8631 51.4583 16.4476 50.6475 14.3982L47.1385 5.52785C45.7935 2.83828 45.1213 1.4935 43.913 0.74675C42.7048 2.23517e-07 41.2013 0 38.194 0Z" fill="#186948"/>
<path fill-rule="evenodd" clip-rule="evenodd" d="M46.875 48.125H51.875C52.9105 48.125 53.75 48.9645 53.75 50C53.75 51.0355 52.9105 51.875 51.875 51.875H1.875C0.839475 51.875 0 51.0355 0 50C0 48.9645 0.839475 48.125 1.875 48.125H6.875V26.25C8.73407 26.25 10.4577 25.6703 11.875 24.6818C13.2923 25.6703 15.016 26.25 16.875 26.25C18.7341 26.25 20.4577 25.6703 21.875 24.6818C23.2922 25.6703 25.016 26.25 26.875 26.25C28.734 26.25 30.4578 25.6703 31.875 24.6818C33.2923 25.6703 35.016 26.25 36.875 26.25C38.734 26.25 40.4577 25.6703 41.875 24.6818C43.2923 25.6703 45.016 26.25 46.875 26.25V48.125ZM20.625 48.125H33.125V41.25C33.125 38.9135 33.125 37.7453 32.6225 36.875C32.2935 36.305 31.82 35.8315 31.25 35.5023C30.3797 35 29.2115 35 26.875 35C24.5385 35 23.3703 35 22.5 35.5023C21.93 35.8315 21.4565 36.305 21.1274 36.875C20.625 37.7453 20.625 38.9135 20.625 41.25V48.125Z" fill="#186948"/>
</svg>
