<svg width="61" height="60" viewBox="0 0 61 60" fill="none" xmlns="http://www.w3.org/2000/svg">
<g clip-path="url(#clip0_20_606)">
<path d="M53.0957 13.6743C52.9567 13.2702 52.5777 13.0004 52.1507 13.0004C40.8498 13.0004 32.8469 32.5592 30.1509 48.4302C27.4549 32.5592 19.452 13.0004 8.15093 13.0004C7.7239 13.0004 7.34492 13.2704 7.20594 13.6743C0.627068 32.7363 5.88899 44.3442 9.61202 49.5671C14.3379 56.1971 21.8239 60 30.1509 60C38.4778 60 45.9638 56.1971 50.6897 49.5671C54.4127 44.3442 59.6747 32.7363 53.0957 13.6743ZM23.0719 53.8441C22.9119 54.2301 22.5398 54.4631 22.1469 54.4631C22.0199 54.4631 21.8909 54.4381 21.7659 54.3861C18.186 52.907 15.1929 50.5041 12.869 47.2451C8.17999 40.6662 6.92 31.2663 9.32092 20.7763C9.44397 20.2374 9.97987 19.8993 10.5179 20.0243C11.0559 20.1474 11.3929 20.6833 11.2699 21.2223C8.99889 31.1483 10.1449 39.9772 14.4979 46.0842C16.5999 49.0322 19.3018 51.2042 22.5299 52.5381C23.0399 52.7491 23.2829 53.3341 23.0719 53.8441Z" fill="#186948"/>
<path d="M30.147 39.1958C32.84 29.4558 37.268 19.8949 43.1069 14.794C40.463 5.68895 35.584 0 30.151 0C24.7171 0 19.8381 5.68895 17.1951 14.7939C23.0341 19.8949 27.455 29.4588 30.147 39.1958ZM21.08 15.7179C22.4071 11.2069 24.324 7.63894 26.476 5.67102C26.883 5.29708 27.5161 5.32602 27.8891 5.73407C28.2621 6.14106 28.233 6.7741 27.826 7.14605C25.966 8.84702 24.2071 12.177 22.9991 16.2821C22.8711 16.7181 22.4721 17.001 22.0402 17.001C21.9462 17.001 21.8511 16.987 21.7572 16.96C21.2271 16.8029 20.9241 16.248 21.08 15.7179Z" fill="#186948"/>
</g>
<defs>
<clipPath id="clip0_20_606">
<rect width="60" height="60" fill="white" transform="translate(0.150879)"/>
</clipPath>
</defs>
</svg>
