<svg width="60" height="60" viewBox="0 0 60 60" fill="none" xmlns="http://www.w3.org/2000/svg">
<path d="M30 55C43.8071 55 55 43.8071 55 30C55 16.1929 43.8071 5 30 5C16.1929 5 5 16.1929 5 30C5 43.8071 16.1929 55 30 55Z" fill="#186948" stroke="#186948" stroke-width="5" stroke-linecap="round"/>
<path d="M23.5049 33.75C24.1632 34.8902 25.1098 35.837 26.2501 36.4952C27.3903 37.1535 28.6836 37.5 30.0001 37.5C31.3166 37.5 32.6098 37.1535 33.7501 36.4952C34.8903 35.837 35.8371 34.8902 36.4953 33.75" stroke="white" stroke-width="5" stroke-linecap="round"/>
<path d="M22.5 19.6875H20C18.4467 19.6875 17.1875 20.9467 17.1875 22.5C17.1875 24.0533 18.4467 25.3125 20 25.3125H22.5C24.0533 25.3125 25.3125 24.0533 25.3125 22.5C25.3125 20.9467 24.0533 19.6875 22.5 19.6875Z" fill="white"/>
<path d="M40 19.6875H37.5C35.9467 19.6875 34.6875 20.9467 34.6875 22.5C34.6875 24.0533 35.9467 25.3125 37.5 25.3125H40C41.5533 25.3125 42.8125 24.0533 42.8125 22.5C42.8125 20.9467 41.5533 19.6875 40 19.6875Z" fill="white"/>
</svg>
