<svg width="33" height="33" viewBox="0 0 33 33" fill="none" xmlns="http://www.w3.org/2000/svg">
<path d="M18.1116 23.0235H15.226C13.1846 23.0235 11.5116 21.3044 11.5116 19.1863C11.5116 18.557 12.0335 18.0351 12.6628 18.0351C13.2921 18.0351 13.8139 18.557 13.8139 19.1863C13.8139 20.0305 14.4432 20.7212 15.226 20.7212H18.1116C18.7102 20.7212 19.186 20.1839 19.186 19.5239C19.186 18.6951 18.9558 18.5723 18.4339 18.3881L13.8139 16.7765C12.8316 16.4235 11.5116 15.7174 11.5116 13.4612C11.5116 11.5426 13.0311 9.96167 14.8883 9.96167H17.7739C19.8153 9.96167 21.4883 11.6807 21.4883 13.7988C21.4883 14.4281 20.9665 14.95 20.3372 14.95C19.7079 14.95 19.186 14.4281 19.186 13.7988C19.186 12.9547 18.5567 12.264 17.7739 12.264H14.8883C14.2897 12.264 13.8139 12.8012 13.8139 13.4612C13.8139 14.29 14.0442 14.4128 14.566 14.597L19.186 16.2086C20.1683 16.5616 21.4883 17.2677 21.4883 19.5239C21.4883 21.4579 19.9688 23.0235 18.1116 23.0235Z" fill="#579F56"/>
<path d="M16.5 24.5582C15.8707 24.5582 15.3489 24.0363 15.3489 23.407V9.59306C15.3489 8.96376 15.8707 8.44189 16.5 8.44189C17.1293 8.44189 17.6512 8.96376 17.6512 9.59306V23.407C17.6512 24.0363 17.1293 24.5582 16.5 24.5582Z" fill="#579F56"/>
<path d="M16.5 33C7.39814 33 0 25.6019 0 16.5C0 7.39814 7.39814 0 16.5 0C17.1293 0 17.6512 0.52186 17.6512 1.15116C17.6512 1.78047 17.1293 2.30233 16.5 2.30233C8.67209 2.30233 2.30233 8.67209 2.30233 16.5C2.30233 24.3279 8.67209 30.6977 16.5 30.6977C24.3279 30.6977 30.6977 24.3279 30.6977 16.5C30.6977 15.8707 31.2195 15.3488 31.8488 15.3488C32.4781 15.3488 33 15.8707 33 16.5C33 25.6019 25.6019 33 16.5 33Z" fill="#579F56"/>
<path d="M31.8489 8.44186C31.2196 8.44186 30.6978 7.92 30.6978 7.2907V2.30233H25.7094C25.0801 2.30233 24.5582 1.78047 24.5582 1.15116C24.5582 0.52186 25.0801 0 25.7094 0H31.8489C32.4782 0 33.0001 0.52186 33.0001 1.15116V7.2907C33.0001 7.92 32.4782 8.44186 31.8489 8.44186Z" fill="#579F56"/>
<path d="M24.1736 9.97669C23.8819 9.97669 23.5903 9.86925 23.3601 9.63902C22.915 9.1939 22.915 8.45716 23.3601 8.01204L31.0345 0.337621C31.4796 -0.107495 32.2164 -0.107495 32.6615 0.337621C33.1066 0.782738 33.1066 1.51948 32.6615 1.9646L24.9871 9.63902C24.7568 9.86925 24.4652 9.97669 24.1736 9.97669Z" fill="#579F56"/>
</svg>
