<svg width="61" height="60" viewBox="0 0 61 60" fill="none" xmlns="http://www.w3.org/2000/svg">
<g clip-path="url(#clip0_20_592)">
<path d="M51.2813 33.6943C55.0911 33.6943 58.1801 30.6073 58.1801 26.7975C58.1801 22.9877 55.091 19.8986 51.2813 19.8986C47.4725 19.8986 44.3833 22.9877 44.3833 26.7975C44.3834 30.6073 47.4725 33.6943 51.2813 33.6943Z" fill="#186948"/>
<path d="M60.1146 40.342C59.8073 38.4948 58.2804 35.9097 57.1247 34.7548C56.9725 34.6018 56.2921 34.5664 56.1084 34.6803C54.7033 35.5444 53.0528 36.053 51.2814 36.053C49.512 36.053 47.8614 35.5444 46.4562 34.6803C46.2716 34.5664 45.5922 34.6018 45.44 34.7548C45.1169 35.0779 44.7644 35.508 44.4207 36.0067C45.3505 37.7575 46.088 39.6173 46.3541 41.2187C46.6201 42.8242 46.5338 44.3441 46.1036 45.7298C47.6315 46.2825 49.4637 46.5251 51.2813 46.5251C56.0221 46.5251 60.8737 44.8813 60.1146 40.342Z" fill="#186948"/>
<path d="M30.0162 30.7841C36.1905 30.7841 41.1963 25.7783 41.1963 19.6042C41.1963 13.4319 36.1905 8.42615 30.0162 8.42615C23.843 8.42615 18.8391 13.4319 18.8391 19.6042C18.8391 25.7783 23.8429 30.7841 30.0162 30.7841Z" fill="#186948"/>
<path d="M39.4829 32.4965C39.2403 32.255 38.1386 32.1932 37.8391 32.3786C35.56 33.7809 32.8854 34.6018 30.0162 34.6018C27.1491 34.6018 24.4732 33.7809 22.1954 32.3786C21.8959 32.1931 20.7943 32.255 20.5517 32.4965C18.6742 34.372 16.1998 38.5647 15.702 41.5537C14.4746 48.9161 22.3388 51.5741 30.0162 51.5741C37.6958 51.5741 45.5599 48.9161 44.3324 41.5537C43.8346 38.5647 41.3602 34.372 39.4829 32.4965Z" fill="#186948"/>
<path d="M9.10549 33.6943C12.9143 33.6943 16.0034 30.6073 16.0034 26.7975C16.0034 22.9877 12.9143 19.8986 9.10549 19.8986C5.29561 19.8986 2.20654 22.9877 2.20654 26.7975C2.20654 30.6073 5.29561 33.6943 9.10549 33.6943Z" fill="#186948"/>
<path d="M13.681 41.2187C13.9639 39.5368 14.762 37.5563 15.7627 35.725C15.4838 35.344 15.205 35.0121 14.9477 34.7548C14.7954 34.6018 14.116 34.5664 13.9314 34.6803C12.5262 35.5444 10.8756 36.053 9.10541 36.053C7.33494 36.053 5.6833 35.5444 4.27927 34.6803C4.09552 34.5664 3.4142 34.6018 3.26197 34.7548C2.10334 35.9096 0.580486 38.4948 0.272048 40.342C-0.485921 44.8813 4.3647 46.525 9.10541 46.525C10.7972 46.525 12.5057 46.3168 13.9639 45.8406C13.5044 44.4268 13.4071 42.8713 13.681 41.2187Z" fill="#186948"/>
</g>
<defs>
<clipPath id="clip0_20_592">
<rect width="60" height="60" fill="white" transform="translate(0.193359)"/>
</clipPath>
</defs>
</svg>
