<svg width="72" height="72" viewBox="0 0 72 72" fill="none" xmlns="http://www.w3.org/2000/svg">
<rect width="72" height="72" rx="8" fill="#186948"/>
<path d="M43.961 17H28.039C21.123 17 17 21.123 17 28.039V43.942C17 50.877 21.123 55 28.039 55H43.942C50.858 55 54.981 50.877 54.981 43.961V28.039C55 21.123 50.877 17 43.961 17ZM36 43.372C31.934 43.372 28.628 40.066 28.628 36C28.628 31.934 31.934 28.628 36 28.628C40.066 28.628 43.372 31.934 43.372 36C43.372 40.066 40.066 43.372 36 43.372ZM47.248 26.272C47.153 26.5 47.02 26.709 46.849 26.899C46.659 27.07 46.45 27.203 46.222 27.298C45.994 27.393 45.747 27.45 45.5 27.45C44.987 27.45 44.512 27.26 44.151 26.899C43.98 26.709 43.847 26.5 43.752 26.272C43.657 26.044 43.6 25.797 43.6 25.55C43.6 25.303 43.657 25.056 43.752 24.828C43.847 24.581 43.98 24.391 44.151 24.201C44.588 23.764 45.253 23.555 45.861 23.688C45.994 23.707 46.108 23.745 46.222 23.802C46.336 23.84 46.45 23.897 46.564 23.973C46.659 24.03 46.754 24.125 46.849 24.201C47.02 24.391 47.153 24.581 47.248 24.828C47.343 25.056 47.4 25.303 47.4 25.55C47.4 25.797 47.343 26.044 47.248 26.272Z" fill="#579F56"/>
</svg>
