<svg xmlns="http://www.w3.org/2000/svg" width="72" height="72" viewBox="0 0 72 72" fill="none">
  <rect width="72" height="72" rx="8" fill="#579F56"/>
  <path d="M51.2649 26.1943C51.0066 25.8256 50.6633 25.5246 50.264 25.3167C49.8647 25.1088 49.4212 25.0002 48.971 25H42V20.8C41.9992 20.0576 41.7039 19.3459 41.179 18.821C40.6541 18.2961 39.9423 18.0008 39.2 18H16.8C16.0576 18.0008 15.3459 18.2961 14.821 18.821C14.2961 19.3459 14.0008 20.0576 14 20.8V49.5H18.6447C18.8907 50.874 19.612 52.1177 20.6824 53.0135C21.7528 53.9093 23.1042 54.4001 24.5 54.4001C25.8958 54.4001 27.2472 53.9093 28.3176 53.0135C29.388 52.1177 30.1093 50.874 30.3553 49.5H39.6447C39.8907 50.874 40.612 52.1177 41.6824 53.0135C42.7528 53.9093 44.1042 54.4001 45.5 54.4001C46.8958 54.4001 48.2472 53.9093 49.3176 53.0135C50.388 52.1177 51.1093 50.874 51.3553 49.5H56V33.6207C56.0007 33.1897 55.8681 32.7691 55.6204 32.4164L51.2649 26.1943ZM16.7982 20.8H39.2V36.2H16.8L16.7982 20.8ZM24.5 51.6C23.877 51.6 23.268 51.4153 22.75 51.0691C22.2319 50.723 21.8282 50.231 21.5898 49.6555C21.3514 49.0799 21.289 48.4465 21.4105 47.8355C21.5321 47.2244 21.8321 46.6631 22.2726 46.2226C22.7131 45.7821 23.2744 45.4821 23.8855 45.3605C24.4965 45.239 25.1299 45.3014 25.7055 45.5398C26.281 45.7782 26.773 46.1819 27.1191 46.7C27.4653 47.218 27.65 47.827 27.65 48.45C27.6491 49.2851 27.3169 50.0858 26.7264 50.6764C26.1358 51.2669 25.3351 51.5991 24.5 51.6ZM45.5 51.6C44.877 51.6 44.268 51.4153 43.75 51.0691C43.2319 50.723 42.8282 50.231 42.5898 49.6555C42.3514 49.0799 42.289 48.4465 42.4105 47.8355C42.5321 47.2244 42.8321 46.6631 43.2726 46.2226C43.7131 45.7821 44.2744 45.4821 44.8855 45.3605C45.4965 45.239 46.1299 45.3014 46.7055 45.5398C47.281 45.7782 47.773 46.1819 48.1191 46.7C48.4653 47.218 48.65 47.827 48.65 48.45C48.6491 49.2851 48.3169 50.0858 47.7264 50.6764C47.1358 51.2669 46.3351 51.5991 45.5 51.6ZM53.2 46.7H51.187C50.8128 45.4838 50.0586 44.4195 49.035 43.6635C48.0115 42.9075 46.7725 42.4995 45.5 42.4995C44.2275 42.4995 42.9885 42.9075 41.965 43.6635C40.9414 44.4195 40.1872 45.4838 39.813 46.7H30.187C29.8128 45.4838 29.0586 44.4195 28.035 43.6635C27.0115 42.9075 25.7725 42.4995 24.5 42.4995C23.2275 42.4995 21.9885 42.9075 20.965 43.6635C19.9414 44.4195 19.1872 45.4838 18.813 46.7H16.8V39H53.2V46.7ZM53.2 36.2H42V27.8H48.971L53.2 33.8414V36.2Z" fill="white"/>
</svg>