<svg xmlns="http://www.w3.org/2000/svg" width="72" height="72" viewBox="0 0 72 72" fill="none">
  <rect width="72" height="72" rx="8" fill="#579F56"/>
  <path d="M53.5482 44.0654H29.4731C27.5807 44.0654 26.6369 44.0654 25.9827 43.5117C25.3286 42.958 25.1744 42.0259 24.8613 40.1592L21.4901 19.9039C21.1794 18.0395 21.0229 17.1074 20.371 16.5537C19.7169 16 18.773 16 16.8807 16H15M21.6747 20.7029L48.093 20.6865C52.074 20.6865 54.0645 20.6842 55.3401 21.6911C55.8829 22.1209 56.3233 22.6659 56.6297 23.2868C57.3516 24.7446 56.9334 26.6907 56.1017 30.5852C55.534 33.2322 55.2513 34.5569 54.443 35.4727C54.0949 35.8677 53.6826 36.201 53.2234 36.4586C52.1581 37.0566 50.8054 37.0566 48.0977 37.0566H24.3473" stroke="white" stroke-width="3" stroke-linecap="round" stroke-linejoin="round"/>
  <path d="M54.7163 52.2422C54.7163 53.1716 54.3471 54.0629 53.6899 54.7201C53.0327 55.3773 52.1414 55.7466 51.212 55.7466C50.2825 55.7466 49.3912 55.3773 48.734 54.7201C48.0768 54.0629 47.7076 53.1716 47.7076 52.2422C47.7076 51.3128 48.0768 50.4214 48.734 49.7642C49.3912 49.107 50.2825 48.7378 51.212 48.7378C52.1414 48.7378 53.0327 49.107 53.6899 49.7642C54.3471 50.4214 54.7163 51.3128 54.7163 52.2422ZM32.5219 52.2422C32.5219 53.1716 32.1527 54.0629 31.4955 54.7201C30.8383 55.3773 29.947 55.7466 29.0176 55.7466C28.0881 55.7466 27.1968 55.3773 26.5396 54.7201C25.8824 54.0629 25.5132 53.1716 25.5132 52.2422C25.5132 51.3128 25.8824 50.4214 26.5396 49.7642C27.1968 49.107 28.0881 48.7378 29.0176 48.7378C29.947 48.7378 30.8383 49.107 31.4955 49.7642C32.1527 50.4214 32.5219 51.3128 32.5219 52.2422Z" fill="white"/>
</svg>