<svg width="72" height="72" viewBox="0 0 72 72" fill="none" xmlns="http://www.w3.org/2000/svg">
<rect width="72" height="72" rx="8" fill="#579F56"/>
<path d="M29.3135 35.2858C29.3135 35.2858 27.2475 35.1373 26.718 34.6078C26.1886 34.0784 26.1886 33.2198 26.718 32.6903C27.2475 32.1608 28.1061 32.1608 28.6356 32.6903C29.1651 33.2198 29.3135 35.2858 29.3135 35.2858Z" fill="white"/>
<path d="M24.878 32.0152L26.2594 25.7455C26.2594 25.7455 21.0524 25.3204 21.8494 20.6979C21.8494 20.6979 28.5973 22.9295 30.5101 21.0167C30.5101 21.0167 34.7388 16.4986 41.4899 20.9876C43.7425 22.4854 50.1506 20.6688 50.1506 20.6688C50.9476 25.2913 45.7406 25.7164 45.7406 25.7164L47.122 31.9861" stroke="white" stroke-width="2.11677" stroke-miterlimit="10" stroke-linecap="round" stroke-linejoin="round"/>
<path d="M30.8869 45.4148H41.5487C41.7331 45.4148 41.9097 45.4919 42.0289 45.6326C42.6029 46.31 44.1605 48.5798 43.4487 52.6132C43.3242 53.3186 42.6591 53.7941 41.9547 53.6643C39.5982 53.23 34.2776 52.4512 30.5928 53.443C29.8431 53.6448 29.0969 53.1353 29.0042 52.3645C28.7994 50.6618 28.7901 47.8707 30.3671 45.6743C30.4858 45.509 30.6835 45.4148 30.8869 45.4148Z" stroke="white" stroke-width="2.11677" stroke-miterlimit="10" stroke-linecap="round" stroke-linejoin="round"/>
<path d="M31.8256 48.3142C31.8256 48.3142 31.3602 50.2498 33.9638 50.2979" stroke="white" stroke-width="2.11677" stroke-miterlimit="10" stroke-linecap="round" stroke-linejoin="round"/>
<path d="M31.3243 55.9004C31.3243 55.9004 35.6281 61.2669 40.6757 56.1129" stroke="white" stroke-width="2.11677" stroke-miterlimit="10" stroke-linecap="round" stroke-linejoin="round"/>
<path d="M23.4533 27.8924C21.3759 26.5653 18.4506 24.7825 15.0228 25.6263C15.0228 25.6263 14.0132 35.1372 25.4369 36.1467L26.2594 36.744C26.2594 36.744 24.7065 42.7898 27.1149 47.6603" stroke="white" stroke-width="2.11677" stroke-miterlimit="10" stroke-linecap="round" stroke-linejoin="round"/>
<path d="M42.6865 35.2548C42.6865 35.2548 44.7525 35.1063 45.2819 34.5768C45.8115 34.0474 45.8115 33.1888 45.2819 32.6593C44.7525 32.1298 43.8939 32.1298 43.3644 32.6593C42.8349 33.1888 42.6865 35.2548 42.6865 35.2548Z" fill="white"/>
<path d="M40.8523 48.2852C40.8523 48.2852 41.3177 50.2207 38.7142 50.2688" stroke="white" stroke-width="2.11677" stroke-miterlimit="10" stroke-linecap="round" stroke-linejoin="round"/>
<path d="M48.7116 27.7599C50.7776 26.48 53.6391 24.7758 56.9772 25.5975C56.9772 25.5975 57.9868 35.1084 46.5631 36.1179L45.7406 36.7152C45.7406 36.7152 47.4614 42.1234 45.0531 46.9939" stroke="white" stroke-width="2.11677" stroke-miterlimit="10" stroke-linecap="round" stroke-linejoin="round"/>
</svg>
