<svg xmlns="http://www.w3.org/2000/svg" width="20" height="27" viewBox="0 0 20 27" fill="none">
  <path d="M8.97229 26.1286C1.40469 15.1579 0 14.0319 0 10C0 4.47714 4.47714 0 10 0C15.5229 0 20 4.47714 20 10C20 14.0319 18.5953 15.1579 11.0277 26.1286C10.5311 26.846 9.46885 26.846 8.97229 26.1286ZM10 14.1667C12.3012 14.1667 14.1667 12.3012 14.1667 10C14.1667 7.6988 12.3012 5.83333 10 5.83333C7.6988 5.83333 5.83333 7.6988 5.83333 10C5.83333 12.3012 7.6988 14.1667 10 14.1667Z" fill="white"/>
</svg>