<svg width="23" height="23" viewBox="0 0 23 23" fill="none" xmlns="http://www.w3.org/2000/svg">
<path d="M17.575 22.7501C12.982 22.7442 8.57873 20.917 5.33095 17.6692C2.08317 14.4214 0.255953 10.0182 0.25 5.42513C0.25 4.05263 0.795222 2.73635 1.76572 1.76585C2.73622 0.79535 4.0525 0.250129 5.425 0.250129C5.71563 0.247915 6.00578 0.274292 6.29125 0.328878C6.56722 0.369717 6.83853 0.437542 7.10125 0.531379C7.28603 0.596212 7.45069 0.708154 7.57894 0.856135C7.70719 1.00412 7.79459 1.18301 7.8325 1.37513L9.37375 8.12513C9.41529 8.30835 9.41029 8.49906 9.3592 8.67985C9.3081 8.86064 9.21255 9.02575 9.08125 9.16013C8.935 9.31763 8.92375 9.32888 7.54 10.0489C8.64812 12.4798 10.5923 14.4321 13.0188 15.5501C13.75 14.1551 13.7612 14.1439 13.9187 13.9976C14.0531 13.8663 14.2182 13.7708 14.399 13.7197C14.5798 13.6686 14.7705 13.6636 14.9537 13.7051L21.7038 15.2464C21.8897 15.2895 22.0616 15.3793 22.2033 15.5072C22.3451 15.6351 22.4519 15.797 22.5138 15.9776C22.6087 16.2447 22.6802 16.5194 22.7275 16.7989C22.7728 17.0816 22.7953 17.3675 22.795 17.6539C22.7743 19.0205 22.2137 20.3234 21.2357 21.2782C20.2577 22.233 18.9417 22.7622 17.575 22.7501Z" fill="white"/>
</svg>
